<svg id="Layer_1" data-name="Layer 1" xmlns="http://www.w3.org/2000/svg" xmlns:xlink="http://www.w3.org/1999/xlink" viewBox="0 0 713 831">
    <defs>
        <style>.cls-1{fill:url(#linear-gradient);}.cls-2{fill:#037a0e;}.cls-3{fill:#fff;}</style>
        <linearGradient id="linear-gradient" x1="373.19" y1="840.94" x2="359.33" y2="-81.8" gradientUnits="userSpaceOnUse">
            <stop offset="0" stop-color="#0453b2"/>
            <stop offset="0.02" stop-color="#114fac"/>
            <stop offset="0.11" stop-color="#4c3d94"/>
            <stop offset="0.19" stop-color="#7d2e7f"/>
            <stop offset="0.27" stop-color="#a2236f"/>
            <stop offset="0.35" stop-color="#be1b63"/>
            <stop offset="0.41" stop-color="#ce165c"/>
            <stop offset="0.46" stop-color="#d4145a"/>
            <stop offset="0.53" stop-color="#d92c4f"/>
            <stop offset="0.68" stop-color="#e1533c"/>
            <stop offset="0.8" stop-color="#e6702e"/>
            <stop offset="0.92" stop-color="#ea8126"/>
            <stop offset="1" stop-color="#eb8723"/>
        </linearGradient>
    </defs>
    <path class="cls-1" d="M359.77,786C294.6,697,229,609.16,165.53,519.89c-31.22-43.9-56.86-91.8-67.76-145.13-15.5-75.82,3-145.25,49.72-206.08,59-76.73,139-111.6,235-107.33C510.21,67,620.17,169.78,636.69,295.23,644.56,355,624.25,407,596,457.27c-42.15,75.07-95.44,142.39-147.3,210.7C419.29,706.75,390.1,745.74,359.77,786ZM487.64,358.78c.08-66.31-53.56-120.84-119-121-71.32-.17-125.25,51.8-125.33,120.77-.07,68,52.94,121.48,121.3,122.29S487.56,427.42,487.64,358.78Z"/>
    <circle class="cls-2" cx="373.65" cy="358.71" r="177.96"/>
    <path class="cls-3" d="M409.73,457.8C312,487.68,279.38,417.19,275.59,408a1.1,1.1,0,0,0-1.4-.6l-7.66,2.82a1.09,1.09,0,0,1-1-.12l-8-5.32a1.1,1.1,0,0,0-1.71.91v6.91a1.1,1.1,0,0,0,.62,1c4.34,2.11,5.21,6.81,5.3,9.75a1.1,1.1,0,0,1-1.74.92c-3.34-2.28-7.56.19-7.56.19-4.22,2.29-4.49,16.41-4.42,22.2a1.1,1.1,0,0,1-1.88.78c-10.17-10.07-6.29-27.34-6.29-27.34,0-1.75-8.66,1.08-13.41,2.76a1.1,1.1,0,0,1-1.28-1.65,25.09,25.09,0,0,1,8-7.7,1.09,1.09,0,0,0,.08-1.85c-2.18-1.49-6.5-3.84-8.61-5a1.09,1.09,0,0,1-.11-1.86c3-1.94,10.8-1.85,13.73-1.73a1.1,1.1,0,0,0,1.14-1.13,77.67,77.67,0,0,0-1.81-14.32,1.08,1.08,0,0,1,.17-.87c7.81-10.47,24.85-.82,31.66,3.69a1.09,1.09,0,0,0,1.63-1.3c-17.67-48.6,1.05-82.48,3.83-87.1a1.08,1.08,0,0,0,0-1.11L270,292.42a1.1,1.1,0,0,1,.53-1.56l12.28-5.08a1.09,1.09,0,0,0,.68-.95c.19-3.71-3.23-5.91-5.31-6.9a1.1,1.1,0,0,1-.21-1.84c6.2-5.14,14.82-5.93,18.12-6a1.09,1.09,0,0,0,.87-1.71c-1.6-2.29-6.62-3.85-9.51-4.59a1.1,1.1,0,0,1-.39-1.93c8.57-6.46,20.87-4.95,23.79-4.47a1.09,1.09,0,0,0,1.1-.52c2.35-3.85-3.58-9.11-6.14-11.12a1.1,1.1,0,0,1,.05-1.77c7.48-5.23,23.46-2.27,31.42-.33a1.1,1.1,0,0,0,1-1.9L330.4,235a1.09,1.09,0,0,1,.38-1.88,34.65,34.65,0,0,1,24.36,1.22,1.1,1.1,0,0,0,1.25-1.75l-2.09-2.35a1.1,1.1,0,0,1,.56-1.8c16.16-3.86,22.93,3.36,22.93,3.36L372,225.25a1.1,1.1,0,0,1,.8-1.83c19-.67,35.71,16.56,38.47,19.56a1.07,1.07,0,0,0,1,.33c33.58-6,39.73,11.28,40.45,13.83a1.14,1.14,0,0,0,.34.54l9.83,8.43.14.1c1.3.79,19.51,11.93,25.58,21.73,5.57,9-13.49,10.79-18,11.08a1.1,1.1,0,0,0-1,1c-.87,6.5-7.25,9.06-10.13,9.89a1.1,1.1,0,0,1-1.4-1.06v-5.37c0,4.87-3.75,7.49-5.86,8.58a1.1,1.1,0,0,1-1.59-.84l-.57-4.37a1.09,1.09,0,0,0-2.11-.24c-7.09,19.1-29.13,20.89-33.94,21.05a1.09,1.09,0,0,1-1.1-.86c-3.71-18.58-18.46-11.22-21.87-9.23a1.1,1.1,0,0,0-.5,1.24c4.43,16.07,24.58,13.7,34.66,11.41a1.1,1.1,0,0,1,.88,2,1.1,1.1,0,0,0,.79,2,89,89,0,0,1,16.44-.48,1.1,1.1,0,0,1,.15,2.18l-10.89,2.09a1.09,1.09,0,0,0-.26,2.07,88.74,88.74,0,0,1,9.77,5.65,1.1,1.1,0,0,1-.85,2l-13.87-3.15a1.09,1.09,0,0,0-1.31,1.31l1.05,4.63a1.1,1.1,0,0,1-1.85,1c-7.57-7.41-19-9.29-26.69-9.29-8.22,0-24.64-19.4-26.45-21.58a1.17,1.17,0,0,0-.4-.3c-38.58-17.14-49.18,36.46-51.16,49.56a1.09,1.09,0,0,0,1.77,1c23.24-18.66,32.25.17,33.1,2.13a1.21,1.21,0,0,0,.2.3c8.07,8.6,16.65.42,20.31-4a1.1,1.1,0,0,1,1.95.66l.24,6.22a1.1,1.1,0,0,0,1.84.76c3-2.71,7.34-3.71,10.45-4.07a1.1,1.1,0,0,1,.77,2L385,379.28a1.1,1.1,0,0,0,.56,2,68,68,0,0,1,9.57,1.78,1.1,1.1,0,0,1,0,2.15l-14.75,3.14a1.09,1.09,0,0,0-.24,2.06A35.38,35.38,0,0,1,394.21,403a1.1,1.1,0,0,1-1.27,1.64l-30.25-9.94a1.11,1.11,0,0,0-1.31.52l-8.5,15.39a1.1,1.1,0,0,1-2-.25,26.08,26.08,0,0,1,1-15.77,1.1,1.1,0,0,0-.25-1.18l-2.71-2.71a1.1,1.1,0,0,1-.14-1.39l1.19-1.78a1.11,1.11,0,0,0,.17-.81c-2.8-15.63-12.42-9.79-13.79-8.87a.87.87,0,0,0-.27.27c-6.41,9-8.34,17.3-8.5,23.68a26,26,0,0,0,7.76,19c43.92,43.88,106.33-1.22,129.09-36.52,14.23-22.07,31.42-53.9,42.89-75.83a145.2,145.2,0,0,1,25.13-34.49,183.35,183.35,0,0,0-164-101.19c-101.26,0-183.35,82.09-183.35,183.36A183.35,183.35,0,0,0,368.49,539.44c101.27,0,183.36-82.09,183.36-183.35a182.9,182.9,0,0,0-11.5-64C497.53,349.66,480.37,436.22,409.73,457.8Z"/>
</svg>