<svg id="Layer_1" data-name="Layer 1" xmlns="http://www.w3.org/2000/svg" xmlns:xlink="http://www.w3.org/1999/xlink" viewBox="0 0 1080 542"><defs><style>.cls-1{fill:url(#linear-gradient);}.cls-2{fill:#037a0e;}.cls-3{fill:#fff;}.cls-4{fill:#2469bc;}</style><linearGradient id="linear-gradient" x1="744.73" y1="400.59" x2="738.64" y2="-4.72" gradientUnits="userSpaceOnUse"><stop offset="0" stop-color="#0453b2"/><stop offset="0.02" stop-color="#114fac"/><stop offset="0.11" stop-color="#4c3d94"/><stop offset="0.19" stop-color="#7d2e7f"/><stop offset="0.27" stop-color="#a2236f"/><stop offset="0.35" stop-color="#be1b63"/><stop offset="0.41" stop-color="#ce165c"/><stop offset="0.46" stop-color="#d4145a"/><stop offset="0.53" stop-color="#d92c4f"/><stop offset="0.68" stop-color="#e1533c"/><stop offset="0.8" stop-color="#e6702e"/><stop offset="0.92" stop-color="#ea8126"/><stop offset="1" stop-color="#eb8723"/></linearGradient></defs><path class="cls-1" d="M738.84,376.46c-28.63-39.11-57.43-77.68-85.32-116.89-13.72-19.29-25-40.32-29.76-63.75-6.81-33.3,1.29-63.8,21.83-90.52,25.92-33.71,61-49,103.21-47.15,56.12,2.5,104.42,47.63,111.68,102.74,3.45,26.24-5.47,49.09-17.86,71.17-18.52,33-41.92,62.55-64.7,92.55C765,341.65,752.16,358.77,738.84,376.46ZM795,188.8c0-29.13-23.53-53.08-52.28-53.15-31.33-.07-55,22.76-55.05,53,0,29.88,23.26,53.36,53.28,53.72A53.21,53.21,0,0,0,795,188.8Z"/><circle class="cls-2" cx="744.94" cy="188.77" r="78.17"/><path class="cls-3" d="M760.79,232.3c-43,13.12-57.26-17.84-58.93-21.89a.48.48,0,0,0-.61-.27l-3.37,1.24a.47.47,0,0,1-.43,0L693.94,209a.48.48,0,0,0-.75.4v3a.47.47,0,0,0,.27.43,4.7,4.7,0,0,1,2.33,4.29.49.49,0,0,1-.77.4c-1.46-1-3.32.08-3.32.08-1.85,1-2,7.21-1.94,9.75a.48.48,0,0,1-.82.35c-4.47-4.43-2.77-12-2.77-12,0-.77-3.8.47-5.89,1.21a.48.48,0,0,1-.56-.73,11.14,11.14,0,0,1,3.5-3.38.48.48,0,0,0,0-.81c-1-.65-2.86-1.69-3.78-2.18a.48.48,0,0,1-.05-.82c1.32-.85,4.74-.81,6-.76a.48.48,0,0,0,.5-.49,34,34,0,0,0-.8-6.29.47.47,0,0,1,.08-.38c3.43-4.6,10.91-.37,13.9,1.62a.49.49,0,0,0,.72-.57c-7.76-21.35.46-36.23,1.68-38.26a.5.5,0,0,0,0-.49l-2.14-3.74a.48.48,0,0,1,.24-.68l5.39-2.24a.48.48,0,0,0,.3-.41c.08-1.63-1.42-2.6-2.34-3a.49.49,0,0,1-.09-.81c2.73-2.26,6.51-2.61,8-2.65a.49.49,0,0,0,.38-.76c-.7-1-2.9-1.69-4.17-2a.48.48,0,0,1-.18-.85c3.77-2.84,9.17-2.17,10.45-2a.48.48,0,0,0,.49-.23c1-1.69-1.57-4-2.7-4.89a.48.48,0,0,1,0-.77c3.29-2.3,10.31-1,13.8-.15a.48.48,0,0,0,.43-.84l-3.45-2.93a.48.48,0,0,1,.17-.83,15.2,15.2,0,0,1,10.7.53.48.48,0,0,0,.55-.76l-.92-1a.48.48,0,0,1,.24-.79c7.1-1.69,10.07,1.48,10.07,1.48l-2.54-2.88a.49.49,0,0,1,.35-.81c8.36-.29,15.69,7.28,16.9,8.6a.48.48,0,0,0,.44.14c14.75-2.62,17.45,5,17.77,6.08a.39.39,0,0,0,.15.23l4.32,3.7.06,0c.57.34,8.57,5.24,11.23,9.54,2.45,3.95-5.92,4.74-7.89,4.87a.48.48,0,0,0-.43.42c-.39,2.85-3.19,4-4.46,4.34a.48.48,0,0,1-.61-.46v-2.36a4.33,4.33,0,0,1-2.58,3.77.48.48,0,0,1-.69-.37l-.25-1.92a.48.48,0,0,0-.93-.11c-3.11,8.39-12.8,9.18-14.91,9.25a.47.47,0,0,1-.48-.38c-1.63-8.16-8.11-4.93-9.61-4.06a.49.49,0,0,0-.22.55c2,7.06,10.8,6,15.23,5a.48.48,0,0,1,.38.87.48.48,0,0,0,.35.87,38.75,38.75,0,0,1,7.22-.22.49.49,0,0,1,.07,1l-4.79.92a.48.48,0,0,0-.11.91A37.61,37.61,0,0,1,775,183a.49.49,0,0,1-.37.88l-6.09-1.39a.48.48,0,0,0-.58.58l.46,2a.48.48,0,0,1-.81.45c-3.33-3.25-8.35-4.08-11.72-4.08-3.62,0-10.83-8.52-11.62-9.48a.59.59,0,0,0-.18-.13c-16.94-7.53-21.6,16-22.47,21.77a.48.48,0,0,0,.78.44c10.21-8.19,14.16.08,14.54.94a.38.38,0,0,0,.09.13c3.54,3.78,7.31.18,8.92-1.76a.48.48,0,0,1,.85.29l.11,2.73a.49.49,0,0,0,.81.34,8.41,8.41,0,0,1,4.59-1.79.48.48,0,0,1,.33.87l-2.72,2a.49.49,0,0,0,.24.88,29.86,29.86,0,0,1,4.2.78.48.48,0,0,1,0,.94l-6.48,1.38a.48.48,0,0,0-.11.91,15.52,15.52,0,0,1,6.2,5.53.48.48,0,0,1-.56.72l-13.29-4.37a.49.49,0,0,0-.57.23l-3.74,6.76a.48.48,0,0,1-.89-.11,11.57,11.57,0,0,1,.45-6.93.46.46,0,0,0-.11-.51l-1.19-1.19a.49.49,0,0,1-.06-.61l.52-.79a.48.48,0,0,0,.08-.35c-1.23-6.87-5.46-4.3-6.06-3.9a.34.34,0,0,0-.12.12,18.62,18.62,0,0,0-3.73,10.4,11.4,11.4,0,0,0,3.4,8.33c19.3,19.28,46.71-.53,56.7-16,6.26-9.69,13.81-23.67,18.85-33.31a63.41,63.41,0,0,1,11-15.14,80.32,80.32,0,1,0,3.47,8C799.35,184.79,791.81,222.81,760.79,232.3Z"/><path class="cls-2" d="M143.28,389.06l-1.22,5.23c-.41,1.78-.77,3.3-1.1,4.56s-.58,2.35-.79,3.28-.42,1.89-.66,2.86q-8.76,37.45-14.11,46.83a23.54,23.54,0,0,1-7.3,7.41q-15.33,10-24.09,10a13.61,13.61,0,0,1-10.28-4.44,15.4,15.4,0,0,1-4.19-11q0-11.92,10.45-44,3.15-10.22,5.77-17.76t6.32-17q3.7-9.49,8.39-20.17t6.62-15.06a211.31,211.31,0,0,1-30.87,2.37q-15,0-15-10.45,0-6.69,9.72-17,6.57-6.68,12.16-9.29a31.51,31.51,0,0,1,13.49-2.62q5.1,0,14,.31t24.67,1.39l3.4.25L152,305q13.36.72,17.62,1.7a15.61,15.61,0,0,1,7.29,3.75,9.49,9.49,0,0,1,2.43,6.42,22.4,22.4,0,0,1-1.52,7.93,14.76,14.76,0,0,1-3.7,6q-3,3.39-17.14,5.69a14.47,14.47,0,0,0-2.55.25l-2.43.48a9,9,0,0,1,2.91,6.45q0,3.4-3.38,14.73-1.09,2.79-5.2,18.37l-1.82,7.31Z"/><path class="cls-2" d="M242.89,430.19l-2.06,1.7q-.62.38-8.15,6.2-14.58,11.43-24.06,18.05a126.54,126.54,0,0,1-15.8,9.73q-6.33,3.09-10.21,3.1a12.41,12.41,0,0,1-10.52-5.41q-3.94-5.42-4-14,0-14.58,4.38-34a259.56,259.56,0,0,1,11.79-38.23q8.13-20.9,19.93-25.52A23.85,23.85,0,0,1,214,350q7.66,0,12.4,4.74t4.74,12.5a40.06,40.06,0,0,1-1.89,11.3,101.22,101.22,0,0,1-5.86,14.21l-1.46,3.52q-10.45,22.15-10.45,26.9c0,1.87.65,2.8,1.94,2.8s2.8-.85,4.74-2.55a120.14,120.14,0,0,0,9-9.36q3.76-4.62,10.71-11.55l4.5-4.5,3.89-4.13q12.3-12.15,20.09-17.56t12.9-5.41q9.73,0,9.74,16.89,0,3.54-.85,12.52-1.47,17.5-1.46,29.66.12,2.43.18,4.44c0,1.33.06,3.06.06,5.16q.86,8.15,1.22,12.52L289,459q0,3.64-6.57,6.44a38.37,38.37,0,0,1-15.19,2.8,27.85,27.85,0,0,1-13.55-3.1,20.05,20.05,0,0,1-8.57-9.18,34,34,0,0,1-2.92-14.83c0-.73.08-2,.25-3.83S242.73,433.11,242.89,430.19Z"/><path class="cls-2" d="M341.1,431.17l-.49,2.43a52.34,52.34,0,0,1-.48,5.95,72.82,72.82,0,0,1-1.34,9.73,18.23,18.23,0,0,1-2.55,6.26,34.24,34.24,0,0,1-4.62,5.28Q322.74,469,313.75,469q-7.29,0-10.75-5.35t-3.47-17.26a159.28,159.28,0,0,1,2.13-23.4,220.4,220.4,0,0,1,5.17-25l1-3.16a13.21,13.21,0,0,1,.73-3q4.49-16.51,8.26-24.49a40.38,40.38,0,0,1,9.12-12.82,16.74,16.74,0,0,1,10.69-3.77q8.64,0,10.46,10.46a27.43,27.43,0,0,0,3.28-3.41,35,35,0,0,1,5.47-5.65,7.5,7.5,0,0,1,4.5-1.4q10.44,0,10.45,20.67a97.35,97.35,0,0,1-2.43,21.87,66.69,66.69,0,0,1-6.14,17.26q-3.7,6.69-7.35,6.69-4,0-4-15.2a67.41,67.41,0,0,0-.91-12.58,17.34,17.34,0,0,0-2.85-7.11q-3.65,6.81-4.74,31.12Q341.47,427.52,341.1,431.17Z"/><path class="cls-2" d="M398.45,469.45a15.1,15.1,0,0,1-10-5A29,29,0,0,1,382.12,454a47.5,47.5,0,0,1-1.88-14.65q0-20.06,7.47-45.28t17-36.52a12.6,12.6,0,0,1,10.45-4.74q7,0,11.36,6.44t4.31,16.89q0,15.43-4.44,36.16a336.77,336.77,0,0,1-12.49,43.08q-3.15,9-7.77,12.17a13.86,13.86,0,0,1-7.4,1.94ZM413.06,347.3q-11.43-.36-11.43-13.74A44.52,44.52,0,0,1,405,318.07q3.34-8.82,7.6-13.07a13.81,13.81,0,0,1,4.44-3.28,14.58,14.58,0,0,1,5.77-1q6.08,0,8.93,3t2.86,9.9a44.92,44.92,0,0,1-3,16.35,34.17,34.17,0,0,1-8,12.52q-5,4.8-10.21,4.8Z"/><path class="cls-2" d="M479.06,473.46q7.17-.36,13.06-7t5.9-14.4a10.88,10.88,0,0,0-3.53-8.51q-3.76-3.76-16.89-7.41-19.34-5.59-25.16-12.52A18.43,18.43,0,0,1,447,410.26q0-14,10.15-28a80.6,80.6,0,0,1,25.95-22.91q15.8-8.92,31.84-8.93a30.34,30.34,0,0,1,14.59,3.65,29.42,29.42,0,0,1,10.81,9.66,23,23,0,0,1,4,13.06A28.2,28.2,0,0,1,540,391.18a41.46,41.46,0,0,1-11,12.33q-6.63,4.94-12.58,4.93a11.5,11.5,0,0,1-5.9-1.46c-1.66-1-2.49-2-2.49-3.16a19.31,19.31,0,0,1,1-5,75,75,0,0,0,2.67-18.23A25.32,25.32,0,0,0,507,366.14q-6,4.13-7.78,6.55a39.77,39.77,0,0,0-7.17,12.15,35.1,35.1,0,0,0-2.8,13.11,11.09,11.09,0,0,0,2,7,15.25,15.25,0,0,0,6.57,4.44,103.92,103.92,0,0,0,13.79,4q15.43,3.76,21.75,7.3a33.31,33.31,0,0,1,4.49,3.52q4.62,5,4.62,12.89,0,8.4-5.23,17t-16.16,17.69q-11.67,9.86-23.22,14.11a73.19,73.19,0,0,1-25.52,4.26q-13.49,0-21.21-5.35a16.84,16.84,0,0,1-7.72-14.59q0-6.56,5.11-13.31a40.51,40.51,0,0,1,12.7-11,30.41,30.41,0,0,1,14.89-4.25c3.64,0,5.47.81,5.47,2.43a10,10,0,0,1-1.58,4q-4.74,8.51-4.74,15.68A15.13,15.13,0,0,0,479.06,473.46Z"/><path class="cls-2" d="M577.51,350.7l.48-1.46q8-22.61,13.88-31.84a27.29,27.29,0,0,1,7.78-7.78q9.38-6,17.65-6c3.24,0,5.72.74,7.42,2.2a7.88,7.88,0,0,1,2.56,6.32q0,2.81-3.67,11.42a167.7,167.7,0,0,0-9.3,26.85,34.4,34.4,0,0,1,4,.73q7.3,1.1,9.61,2.5t2.32,5A22.83,22.83,0,0,1,627,370.64a20,20,0,0,1-8.63,8q-4,1.83-13,2.43-1.58,4.74-3.49,13-1.08,7.29-2.4,20.18a58,58,0,0,0-.73,8.87q0,19.18,18.6,19.19h1.09c1.46,0,2.19.24,2.19.73q0,1.94-4.14,6.56a54,54,0,0,1-9.11,8.14,48.91,48.91,0,0,1-11.68,5.84,35.36,35.36,0,0,1-11.44,2.19q-12.79,0-20.77-8.63t-8-22.85a79.66,79.66,0,0,1,2.12-15.93q2.13-9.84,6.63-26.37c.48-1.95,1-4,1.58-6.14s.89-3.42,1-3.83q-4.86-.12-6.93-2.07c-1.38-1.29-2.06-3.4-2.06-6.32q0-7.65,5.89-14.46A25,25,0,0,1,577.51,350.7Z"/><path class="cls-2" d="M899.11,320.07,891.7,306.7a18.76,18.76,0,0,1,5.22-3q9.36-3.15,22.6-3.16t20.65,7.66q6.32,6.69,10.33,18.73t7.41,34.27q1.83,11.31,3.17,17,4.26,15.92,5.66,20.35t5.06,14.16c.8,1.87,1.88,4.48,3.22,7.84s2.61,6.5,3.83,9.42q4,9.48,12.15,25a109.88,109.88,0,0,1-17.25,10.33,31.81,31.81,0,0,1-12.88,3.16,23.41,23.41,0,0,1-12-2.8,26.36,26.36,0,0,1-8.69-8.87q-4.62-8.26-9.23-22.49c-.33-.89-.72-2-1.16-3.4s-1-2.87-1.53-4.5q-14.26,6-22.2,6-4.51,0-7.81-.24-2.81-.24-26-.73l-1.12,2.38q-6.72,14.26-12.55,21.68a32.41,32.41,0,0,1-13.43,10.46q-7.59,3-19,3-6.57,0-9.36-1.46a5,5,0,0,1-2.8-4.74q0-4,13.37-22.12,4.74-6.33,7.05-10-12.76-2.43-12.76-9,0-5.35,10.21-15.93,4.86-5.1,9.05-6.5t14.65-1.52L868,375q2.67-4.92,6.92-12.4t9.67-17Q890,336,899.11,320.07Zm10.47,32-22.2,47.21h32.86l-10.17-47.21Z"/><path class="cls-4" d="M687.42,350.8c-.2-.26-.84-.6-.86-.29l.93.8Z"/><path class="cls-4" d="M684.56,351.27a4,4,0,0,0,2.23,1.66c-.91-.78-.47-.64-1.51-1.58,0-.32.59-.24,1,0-.22-.24.44-.23-.14-.75-1-.17-1.27.25-.83,1A1.77,1.77,0,0,1,684.56,351.27Z"/><path class="cls-4" d="M684.43,379.66l.06-.24A.31.31,0,0,0,684.43,379.66Z"/><path class="cls-4" d="M693.63,395.5a.27.27,0,0,0-.33,0C693.45,395.55,693.57,395.59,693.63,395.5Z"/><path class="cls-4" d="M694.71,398.77a.85.85,0,0,0-.06-.19C694.61,398.7,694.62,398.8,694.71,398.77Z"/><path class="cls-4" d="M684.43,379.66l-.14.6C684.66,380.13,684.45,379.91,684.43,379.66Z"/><path class="cls-4" d="M685.88,355.74a.71.71,0,0,0-.24-.3,1.05,1.05,0,0,1,.06.24Z"/><path class="cls-4" d="M680.71,372.28l0-.15h-.51Z"/><path class="cls-4" d="M679.3,366c0,.15,1,.08,1.44.08-.43,0-.64-.11-.73-.23A4.56,4.56,0,0,0,679.3,366Z"/><path class="cls-4" d="M681.55,355.92l-.09-.2S681.51,355.86,681.55,355.92Z"/><path class="cls-4" d="M681.9,376.7a2.15,2.15,0,0,0-.32.18A1.11,1.11,0,0,0,681.9,376.7Z"/><path class="cls-4" d="M780.5,356.62l.13-.14C780.54,356.54,780.48,356.58,780.5,356.62Z"/><path class="cls-4" d="M778.25,348.85h.11l.28-.5Z"/><path class="cls-4" d="M698,403.91a0,0,0,0,1,0,0C697.75,403.86,697.83,403.9,698,403.91Z"/><path class="cls-4" d="M749,419.68c-.74-.82.81-1.29-.25-2.17C748.87,417.89,748.12,419.19,749,419.68Z"/><path class="cls-4" d="M685.72,355.84a1.55,1.55,0,0,1,0,.21C685.73,356,685.75,355.9,685.72,355.84Z"/><path class="cls-4" d="M748.72,417.51h0l-.1-.09Z"/><path class="cls-4" d="M709.32,411.72a2.33,2.33,0,0,0,.11-.46A1.17,1.17,0,0,0,709.32,411.72Z"/><path class="cls-4" d="M701.93,404.65l.11.27A.49.49,0,0,0,701.93,404.65Z"/><path class="cls-4" d="M714.63,413c.08.13.06.28.29.23a.62.62,0,0,0,0-.13C714.8,413.18,714.69,413.2,714.63,413Z"/><path class="cls-4" d="M719.61,415.16c0-.08,0-.15,0-.23h-.18Z"/><path class="cls-4" d="M787.34,367.57a5.6,5.6,0,0,1,.85-.42C787.5,367.39,787.11,366.83,787.34,367.57Z"/><path class="cls-4" d="M685.33,355.58c.24.1.35.17.39.26a.78.78,0,0,0,0-.16A.89.89,0,0,0,685.33,355.58Z"/><path class="cls-4" d="M718.38,405.82l.61.46A1.92,1.92,0,0,0,718.38,405.82Z"/><path class="cls-4" d="M775.41,396.56l0-.21C775.38,396.38,775.36,396.45,775.41,396.56Z"/><path class="cls-4" d="M721.08,407.05a1.6,1.6,0,0,0,.12.81,2.13,2.13,0,0,0,.18-.21Z"/><path class="cls-4" d="M788.2,367.14h0Z"/><path class="cls-4" d="M784.39,363.72c.25.57,1.33-.28,2.09-.48.67.6-.76.74-1.3,1.25.5.3,1.79.21,1.89.58-.2.1-.25.2-.54.21,1.18.16.51,1.44,2,1.7a1,1,0,0,1-.31.16,10.53,10.53,0,0,1,1.77-.55c.09.31,1,.41.13.73,0-.21-.37-.14-.66-.17l.45.25c-1.17.57-.53-.36-1.44-.13.52.51,1.76,1.06,1.47,1.63-1.19.3-.63-1.06-1.58-.22l.3-.82c-1.79.95,0-.46-1.89.48-.14.94.82.89.59,1.86.71.12,1-.2,1.71-.07.73.63-.07,1-.78,1.26s-1.38.45-.53.9c.84.22,2.43.33,1.56,1.06l-1.39-.27c-.18.88,2,.61,1,1.53-.53-.21-.44-.75-.6-.63-1.13.54.79.5.72,1l-1.25,0a7.45,7.45,0,0,0,.44,1.58,6,6,0,0,1,.3,1.72c-.34-.15-.68-.43-1.1-.28.27,1.48-1.06,2.76-2.27,3.62.26.3.51.61.75.92-.06.11-.53,0-.66-.21-.6.29.6.32.86.74-.07.31-.73.08-.93-.24.41,1.23.37,3.39-1.17,3.65l-.16-.34c-.8.43,1.33,2,.07,2.06l-.08-.23c-1.37,1.21-1.83,3.42-4,3.51,1,1.18-1.67,1-.09,2.42-1.49.11-1.59-.35-3.07.26-.33.23.62,1.32.46,1.83l-.84-.74.43,1.28-1.22-.67-.09.53a1,1,0,0,1,.84.31c-.11.87-1.75.69-2.17.3l-.49,1.82c-.29-.35-.2-.64-.25-1,.18,1.42-.93-.74-.77.56.25.11.42.52.56.7a1.58,1.58,0,0,0-1.72,1l-.42-.66c-1,.64-1.65,1.91-2.71,2.7.59,0,1.33,1.13,1.09,1.47l-.85-.84c.24.74.61.1.73,1.14-.5.2-1.08-.88-1.09-1.36l-.24.69c-.24-.26-.23-.5-.47-.88.23.74-1.52-.37-1.07.87l-.23-.27c-1.07.73-1.37,1.33-2.23,2,.5.88,0,.93.15,1.8-.88.09-2-.21-2.83.31-.39.74.2.86.18,1.54-.45-.82-1.29-.35-1.12-1.16a8.21,8.21,0,0,0-2.34,2c.28.3.52.39.54.72-.2.24-.72-.15-.84-.58l0-.12c-.53,1-1.68.66-2.73.32s-2-.59-2.38.49l0-.11-1.08,1.3c-.65,0,.21-.77-.37-1.22-1.11,1.85-2.3.21-3.31,1.45a1.58,1.58,0,0,0-2.29-.88c-.83.29-1.73.6-2.4-.22l.11.65c-.29.65-.41-.35-.65-.48.05.5.38.56.19.92-2.76.89-5.73-.88-8.35-1.82-1-.26-1,3.26-2.1,1.53l.55-1.13a4.22,4.22,0,0,1-3.21.09,12.19,12.19,0,0,0-1.55-.32,3.58,3.58,0,0,0-1.62.06c.19-.23.29-.58.48-.52-.18-1-1.51-.46-1.73.21-.28-.18.12-.64,0-1.05-.24-.62-1.37.72-1.31-.18,0-.15.21-.23.3-.27-.4.31-1.19-.52-1.28.52-.55-.7-1.53-.13-1.88-.9-.81.89-1-1-1.76.4.71-1.48-.67-1.78-1.46-1.29.37-.38-.16-.64.32-1.18a1,1,0,0,0-1.39.61c0-2.23-2.61.43-1.87-2.08a21.79,21.79,0,0,1-2.64-.28,17.76,17.76,0,0,1-2.34-.67c1-1.33,1.48.8,2.38-.68-1.53-.21-3.06.49-4-.72-.16-.4.6-.44.86-.59-1.57-.3-2.08-1.8-3.63-1.93a.77.77,0,0,1,.5-.17c-.23-.12-.3-.55-.76,0h.32c-.39,1.09-2.26,1.07-2.67,1.44,1.74-1.31-.61-1.28,1.72-2.82a1.19,1.19,0,0,0-.92.51c-.09-.28.05-.55.62-.8-.94-.31-1.25.49-1.85-.08.26-.26.48-.25.83-.5-.8.24-1.58.43-1.86-.28.18-.13.32-.39.47-.24-.92-.76-2.82-.14-3.21-1.62,1.42-.77.07-.68,1-1.64l-.78-.25-.3.64c-.41-.46-1.5-.26-1.51-1h.72l-.94-.73,0,.84c-.95-.05-1.28,1.15-1.54.25.22.05-.4-.51,0-1.26h0c-.53,0-1.08,0-1.1-.55.27-.36,1.25-.84,1.43-1.07-1.09.44-1.13-1-2.35-.59a2.79,2.79,0,0,0,1-.59l-.91.33c.08-.42.17-.53.66-.82-.36-.83-1.25,1.22-1.24-.07.11,0,.2-.09.42,0-.27-1.08-1.66-1.34-1.77-2.42,1-1,.72.53,1.52-.37-.92-1-2.91-1.56-3.27-2.92V383c-1.78.77.34-1.34-.79-1.5a1.66,1.66,0,0,0,.84-.24c-.14-1-1.26-1.44-2.43-2.45l.52-.05c.18-.68-.35-1.4-.37-2-.52,0-.57-.31-1.16.16,1-1.38.3-2-.38-2.64s-1.41-1.27-.52-2.37c.06.18.55.31.51.16-.29-.37-.56-.76-.81-1.15-.79.32-.45.3-1,.76a1.18,1.18,0,0,1-1.09-.65c.7.46,1.31-.36,1.7-.72-.24.11-.54.09-.79.18,1.29-1.05-1.7.29-.92-.92l.44-.05c-.29-.3-.94-.52-.9-.94.92-.35.53.3,1.32.16-.18-.51-2-.74-1.15-1.41.31.19.36.53.67.71,1-.74.74-.74.86-1.16l0,0,.37-1-.27.26c-2.62-.34-.62-1.29-2.36-2.08,1.65.79.92.08,2,.07.29-.25.63-.61.94-.53-.91-.37.67-.7-.65-1.24.34,0,0-.44.92-.35-.26-.52-.62.12-1.06.08-.6-.41-.22-.92.11-1.43s.66-1-.12-1.71c-.54-1.11-1.68-1.51-2.06-2.67a.9.9,0,0,1,.83.2,2.09,2.09,0,0,1,.37.35,1,1,0,0,0,.38-1.41,1.38,1.38,0,0,0,1,.12c0-.4-1.17-.63-.49-1a9.21,9.21,0,0,1,1.22.81c-.16-.51-.64-1.16-.77-1.74.62.11.78.61,1.11.9-.12-.59,0-1.44-.84-2l-.47.18c.05-.21.81.25.92.45.51.71-.58.47-.92.38a3.43,3.43,0,0,1-.08-.42c-1.05-.24-1.09.17-.92.67s.55,1.09.41,1.42l-1.37-.74c.32.37.67.74,1,1.09-.42.05-1.27-.05-1.39-.48-.87.35.4.6-.53.86-.14,0-.21,0-.25-.08.1.22.19.42.31.63-.29-.17-1.07-.13-.78-.42-1.05.84.84,1.78-.36,2l-.08-.1c.34,1.43,1.08.3,2.28,1.41-.94.13-1.87.27-2.8.44l1.09.22a.46.46,0,0,1-.59.33c.75.56.48-.06,1.19.27-1,.64.42,1.81-1.32,2,.85.22.63-.64,1.24.05-1.9.26.36.81-.49,1.45-1-.12-.49-.76-1.34-.07,1.65.26-.25,1.24.11,1.76,1.3-.12.67,1.08,1.26,1.87-.47,0-.43,1.75-.7,2.67l-.23,0c1.33-.13,1.3.73,1.72,1.25a1.88,1.88,0,0,1-1.55-.08l.16.56a1.15,1.15,0,0,1,1,.46l-1,.13c.27.75,1.57,1.16,1.25,2.31.9-.26,2.21-1.54,3.13-.81-.46.2-1.27.52-1.55.34.09.06.5.15.36.39l-.94-.11c-.21.54.74,0,.79.34-.68.24-.4.42-.95.57-.1-.06.17-.39-.14-.43a1.82,1.82,0,0,1-.68,1.38c.38-.18.91-.34,1.1-.09.33.69-.71.55-.88,1.11.53,0,.24.64,1.24.25.08.21-.37.44-.61.63.58.19.89,1.66,1.74.78l0-.12.07,0h0c1.47.72.62,2.65,1.59,3.6l-.32.16c.71.49,1,1.37,2,1.47.1.19-.32.78-.74.91.53.38.89.23.83,1.24-.85-.17-.37.46-.71-.27.13.8-.26,1.26,1,1.44-.93.25-.67,1.11-.25,1.27l.28-.81a2.27,2.27,0,0,1,.58,1l-1.13.5c-.3,2.15,3.64.93,2.37,3.32.93-.18,0-1,1-1.33.29.66-.64,2.31-.5,2.5.08,1.22,2-.33,2.25.75.25-.38,1.07-1.19,1.87-.87.32.64-.84,1.83-1.4,1.7-.14-.11-.09-.26,0-.35-.27-.08-.61-.2-.79.32l.4-.2c-.12.56.56,1.3-.13,1.58.67.16.69-.28.6-.74.11,1.14.94,1.12,1.27,2.12.07-.28.36-.72.45-.61.55,1.4,1-.09,1.79.47-.11.84-1.29.95-.21,1.25.09.73-.74.89-1.16,1,1.22.05.78,1.57,1,2l-.58-.08a1,1,0,0,1,.67.39l.42-.81c.09.3.25.47,0,.72.59-.21.84-1.18,1.77-1.35,0,.56,1.13.39.44,1.31-.57-1.05-.69.94-1.53.41a.62.62,0,0,1,.5.49.28.28,0,0,1-.29.14c.13,1.51,1.25-.61,2.07.17-.54.39-.61,1.1-.38,1.13-.34-.33.55-1,1.18-1.06.23.85.85.22,1.1.5l-.18-.45c.53-.4.75-.11,1.26.05-.28.41-.56,0-.57.26,1.15-.53.21,1.73,1.32,1.6,0,.57-.72,1-.64,1.41,1.21-.13.24,1.29,1.4,1.3.3-.87.14-.72,1.16-1l-1.58-.41,1.53-.44c-.35-.28-1.09-.13-1.22-.41.8-.29.62-.15.89-.86-.29,1.42,1.42.12,1.46,1.25l-1.26,1.74c.37,1.41,2.23.19,3.11,1.41l-.18-.56c.61-.61.8.36,1.37.3a2.33,2.33,0,0,0-.37,1.44c.25-.47.87.59,1.7-.59l.07,1.14c.83.89,2.14-1.18,3-.46-.65.54-.45,1.23-1.36,1.37.32.18.56.46.79,0,0,.51,1.33-.4,1.34.35.27-.22.65-.88,1-.66a.84.84,0,0,1-.15.32c.16-.32.78-.17.8-1a1.67,1.67,0,0,0,1.47,1.77c.73.21,1.45.37,1.56,1.45a22.23,22.23,0,0,1,2.5.34c-.11.19-.12.34-.22.23.73.95,1.22-1.77,2-.71.21,1.28-.75.43-.54.95-.54,2.33,1.41.06,1.76,1.6l-.21.08c.37.93,1.61-.46,2.49-.12a.91.91,0,0,0-.08.35,4.87,4.87,0,0,1,3.1-1.34c-.44.86-.49.41-.49,1.37.42-.07.16-1.51,1-1.64a4.32,4.32,0,0,1,.59,2.07l-.77-.07c.18,1.35,1,.12,1.37.4L732,419c1.21,0,1.4-1.45,2.64-1.21l-.09-.44c.82-1.34.5.85,1.27-.13l.1,1.45a12.53,12.53,0,0,1,2.49-1.53c-.49,1-1.48,1.54-2.13,2.15.46,0,1.57,0,1.83-.73-.18.13-.43.47-.6.24a2.44,2.44,0,0,1,2.22-1.58c-.18,2.78,2.32.68,3.06,2.82,1.57-1.13,3.28.26,5.19-.18-1-2.07.54-.13.13-2.32.4-.2.57-.18.63,0,.5.38,1,.72,1.52,1.09.42.58-.34.56-.21,1,1,0,.56.86,1.32,1.32-.27-.76.13-1.18.75-1l-1-.86c1.1-1.41,1.55,1.63,2.67.15l-.28.78c.61-.58,2.64-.59,2.79-2.55.19.21.53.75.27,1a5.19,5.19,0,0,0,2.36-1.48c.72-.67,1.41-1.21,2.22-.93l.08.55c.24-.26.14-1.14.71-.78.07.22.09.56.24.53.09-.25.4-1.23.91-1.11L763,416c1.84,0,1.72-2.39,2.72-3.37a2.49,2.49,0,0,0,2.87,1.16l.09.21c1.81-.88,2.19-2.87,3.23-4.41,1.93.78,3.42-1.66,5.38-2.09-.4,0-.79-1-.66-1.3.53,0,.09-1.58,1-.45l-.12.08c1.2.86,1.58,0,2.08-.44l-1.25-1.47c1.59.42,2.22-.58,2.71-1.52s.87-1.84,2.11-1.35c-.08-.63.26-1,.16-1.63l.77.69a6,6,0,0,0,2.13-2.3l.38.69c.57-.58-1.68-2.65-1.28-3.24l1.34.78c.83-1.08,2.78-1.43,2.45-3.38.17.14.51.43.43.66.42-.5,2.34-1.59.43-2.54,1.16.74.92-1.18.77-2.14l.81.62c-.78-1.22-1.09-1.42-1-2.36.21-.13.8.22.44.35.8-.38-.59-.94.28-1.45l.43.58c.4-.62.07-.73-.44-1.41-.17-.59.81-1.14,1.69-.89-.48-.32-1-1-.61-1.27a.79.79,0,0,1,.56.42c1.1-.94-.47-2.12.72-2.62a1.11,1.11,0,0,0,.62,0,4.93,4.93,0,0,1-.68,1.61c.88.33,1.31-.43,2.31.64-.43-.92-1.54-2.43-.94-3.11a1.62,1.62,0,0,1,.34,0l.08.11a.45.45,0,0,0,0-.55,1.52,1.52,0,0,0,.43-.62c.77.06.64-.89.71-1.32-1-.13-.78-.64-1.69-.26.08-.06.11.09.12.37a.41.41,0,0,0,.08.19l-.09,0c0,.27-.08.62-.15,1-.44-.44-.79-.83-.15-1.17l-1.56-.81c1.48-.3,2.39-1.31,3.29-1.4-.5-1.33-.26-3.1-2.26-3.76-.27-.33.53-.43.82-.58.21.19.19.43.47.53a6.41,6.41,0,0,1-.52-1.3,1.2,1.2,0,0,0-1.2-.77c.49-.93,1.3.33.92-.84l.42.11c.94-1.38-.21-2.23-1.15-3s-1.94-1.44-1.11-3.12c-.09.23-.13.34-.33.45a4.9,4.9,0,0,0-.5-2.21,21.33,21.33,0,0,0-1.21-1.92,10.28,10.28,0,0,1-1.24-1.87,5.12,5.12,0,0,1-.66-2.26c-.2-.91-1-.44-1.77-.4l.72-.85c-.51.05-1,.11-1.51.18-.74-.13-.61-.94-.62-1.76s-.16-1.61-1.35-1.44l-.33.69c-.33-.47-1.59-.78-1-1.38-.13.07-.62.51-.56.08l.33-.48-1.68,0c-.65-.94,1.42-1.85.06-2.77-.67-.13-2.28.63-2.26,1.09a.93.93,0,0,1,.08,1.12l-.57,0c-.87,1.45-1.88,2.88-1.59,4.41l1.13-.55-.23.81-.53-.24c-.11.83.41.33.87.05a2.11,2.11,0,0,0-.25.93c.47-.32,1-.64,1.47-.95-.32.59-1,.91-.85,1.47.7-.43.6-1.4,1.34-1.48-.16.82-.63,1.25.09,1a1.16,1.16,0,0,1-.7.6c.6-.2.84.42,1.56-.16-.34.94,1.1.61,0,1.77.33-.2,1.31-.47,1.6-.27-1.8.91.78,1-.89,2.23,1.57-.8,1.59.65,2.78.74-.14,0-.42.14-.39,0,.14.44-.21.84-.33,1.24,1.23-.76,1.87-.35,2.82-.46-.9,1.19-1.61.58-2.64,1.42,1-.63,1.46.2,2.2-.44-.53.78-.17.52-1.11,1.27,1.61-.78.43.19,1.56,0-.52.94-1.44.87-.66,1.22C785.21,364,784.39,363.72,784.39,363.72Zm4.47,14.61h0l0-.34Zm-.37,1.33a2.42,2.42,0,0,0,.22-.56c.35,0,.68.21.62.34C789.13,379.3,788.84,379.56,788.49,379.66Zm7.69-1.47c.09.31-.13.36-.35.36a3,3,0,0,0,0-.51l-.12-.06A2,2,0,0,1,796.18,378.19Z"/><path class="cls-4" d="M795,377.45s-.06-.07-.06-.12l-.25.12.3.15A.76.76,0,0,0,795,377.45Z"/><path class="cls-4" d="M684.49,379.38v0a.35.35,0,0,1,.1-.12Z"/><polygon class="cls-4" points="776.14 395.04 776.33 395.21 776.25 394.96 776.14 395.04"/><path class="cls-4" d="M685,370.3a.6.6,0,0,0,.23-.16A.6.6,0,0,0,685,370.3Z"/><path class="cls-4" d="M684.54,366.87l.28-.53A1.71,1.71,0,0,0,684.54,366.87Z"/><path class="cls-4" d="M684.73,364.22a3.78,3.78,0,0,0-.45,0h.45Z"/><path class="cls-4" d="M706.2,399.28a.17.17,0,0,0,.1,0C706.61,399.31,706.44,399.27,706.2,399.28Z"/><path class="cls-4" d="M695.63,391.81a2.72,2.72,0,0,1,.65,0C696.19,391.6,696.1,391.45,695.63,391.81Z"/><path class="cls-4" d="M718.31,405.77v0l.08,0Z"/><path class="cls-4" d="M696.65,392.3a.42.42,0,0,0-.37-.47C696.34,392,696.4,392.25,696.65,392.3Z"/><path class="cls-4" d="M686.71,353.78l.09-.09a.5.5,0,0,1-.15-.08Z"/><path class="cls-4" d="M686.65,353.61l-.06-.16C686.57,353.5,686.55,353.55,686.65,353.61Z"/><path class="cls-4" d="M686.47,353.09l.12.36C686.64,353.36,686.71,353.27,686.47,353.09Z"/><path class="cls-4" d="M685.25,356.67l.35.12A1.23,1.23,0,0,0,685.25,356.67Z"/><path class="cls-4" d="M685.15,357.66c.12-.22.87-.42.73-.77l-.28-.1C686.09,357.05,684.56,357.3,685.15,357.66Z"/><path class="cls-4" d="M680.16,361.81l.32-1c-.4.16-.94.38-1-.09C678.25,362,680.35,360.49,680.16,361.81Z"/><path class="cls-4" d="M679.71,365c-.24-.52-.57.06-.8.05C679.31,365.32,679.4,365.39,679.71,365Z"/><path class="cls-4" d="M686.89,385.81l-.83.43C686.37,386.53,686.37,386.06,686.89,385.81Z"/><polygon class="cls-4" points="693.12 386.72 693.39 386.1 692.58 386.42 693.12 386.72"/><path class="cls-4" d="M689,392.48l-.21-.07c.22.13.44.25.68.37C689.32,392.68,689.16,392.59,689,392.48Z"/><path class="cls-4" d="M718.37,415.64l.31-1.11C718.35,414.62,717.8,415.79,718.37,415.64Z"/><path class="cls-4" d="M734.41,418.42c.12.59.54,1,.87.47C734.92,418.77,734.61,418.29,734.41,418.42Z"/><polygon class="cls-4" points="779.96 404.35 780 404.86 780.22 404.19 779.96 404.35"/></svg>