<svg id="Layer_1" data-name="Layer 1" xmlns="http://www.w3.org/2000/svg" xmlns:xlink="http://www.w3.org/1999/xlink" viewBox="0 0 713 831"><defs><style>.cls-1{fill:#037a0e;}.cls-2{fill:url(#linear-gradient);}</style><linearGradient id="linear-gradient" x1="364.37" y1="829.16" x2="350.8" y2="-74.16" gradientUnits="userSpaceOnUse"><stop offset="0" stop-color="#0453b2"/><stop offset="0.02" stop-color="#114fac"/><stop offset="0.11" stop-color="#4c3d94"/><stop offset="0.19" stop-color="#7d2e7f"/><stop offset="0.27" stop-color="#a2236f"/><stop offset="0.35" stop-color="#be1b63"/><stop offset="0.41" stop-color="#ce165c"/><stop offset="0.46" stop-color="#d4145a"/><stop offset="0.53" stop-color="#d92c4f"/><stop offset="0.68" stop-color="#e1533c"/><stop offset="0.8" stop-color="#e6702e"/><stop offset="0.92" stop-color="#ea8126"/><stop offset="1" stop-color="#eb8723"/></linearGradient></defs><path class="cls-1" d="M447.49,359.9c-24.65,38.25-92.28,87.11-139.87,39.57a28.14,28.14,0,0,1-8.4-20.55c.17-6.92,2.25-15.87,9.2-25.67a1.1,1.1,0,0,1,.29-.28c1.49-1,11.92-7.33,15,9.61a1.22,1.22,0,0,1-.18.87l-1.29,1.94a1.17,1.17,0,0,0,.15,1.5l2.93,2.94a1.16,1.16,0,0,1,.27,1.27,28.43,28.43,0,0,0-1.11,17.09,1.2,1.2,0,0,0,2.2.27l9.22-16.68a1.19,1.19,0,0,1,1.42-.55L370.05,382a1.19,1.19,0,0,0,1.37-1.78,38.29,38.29,0,0,0-15.28-13.65,1.18,1.18,0,0,1,.26-2.23l16-3.4a1.2,1.2,0,0,0,.05-2.33,73.63,73.63,0,0,0-10.37-1.93,1.19,1.19,0,0,1-.6-2.16l6.72-4.84a1.19,1.19,0,0,0-.83-2.15c-3.37.39-8.09,1.47-11.32,4.41a1.19,1.19,0,0,1-2-.83l-.27-6.74a1.2,1.2,0,0,0-2.11-.72c-4,4.8-13.27,13.67-22,4.35a1.15,1.15,0,0,1-.21-.33c-.93-2.12-10.69-22.53-35.87-2.3a1.19,1.19,0,0,1-1.93-1.1c2.16-14.19,13.64-72.27,55.44-53.7a1.18,1.18,0,0,1,.43.33c2,2.35,19.76,23.38,28.67,23.38,8.32,0,20.71,2,28.92,10.07a1.19,1.19,0,0,0,2-1.11l-1.14-5a1.2,1.2,0,0,1,1.43-1.43l15,3.41a1.18,1.18,0,0,0,.91-2.15,92.39,92.39,0,0,0-10.59-6.13,1.19,1.19,0,0,1,.29-2.25l11.8-2.26a1.19,1.19,0,0,0-.16-2.36,95.45,95.45,0,0,0-17.82.52,1.19,1.19,0,0,1-.85-2.14,1.19,1.19,0,0,0-1-2.13c-10.92,2.48-32.75,5.05-37.55-12.36a1.17,1.17,0,0,1,.54-1.35c3.69-2.15,19.67-10.13,23.7,10a1.17,1.17,0,0,0,1.19.94c5.21-.18,29.09-2.12,36.77-22.81a1.19,1.19,0,0,1,2.3.26l.61,4.73a1.19,1.19,0,0,0,1.72.91c2.29-1.18,6.36-4,6.36-9.3v5.83a1.18,1.18,0,0,0,1.51,1.14c3.12-.9,10-3.68,11-10.72a1.17,1.17,0,0,1,1.08-1c4.85-.32,25.49-2.27,19.46-12-6.57-10.61-26.3-22.69-27.71-23.55a.91.91,0,0,1-.16-.11l-10.65-9.13a1.12,1.12,0,0,1-.37-.58c-.78-2.76-7.45-21.46-43.83-15a1.2,1.2,0,0,1-1.09-.36c-3-3.25-21.07-21.92-41.68-21.2a1.2,1.2,0,0,0-.87,2l6.28,7.11s-7.34-7.83-24.84-3.64a1.19,1.19,0,0,0-.61,1.95l2.26,2.55a1.19,1.19,0,0,1-1.35,1.89,37.61,37.61,0,0,0-26.4-1.33,1.19,1.19,0,0,0-.41,2l8.51,7.25a1.19,1.19,0,0,1-1.05,2.07c-8.62-2.1-25.94-5.31-34,.35a1.19,1.19,0,0,0-.05,1.92c2.77,2.18,9.19,7.88,6.65,12.05a1.18,1.18,0,0,1-1.2.56c-3.16-.51-16.49-2.16-25.78,4.85a1.19,1.19,0,0,0,.43,2.09c3.13.79,8.57,2.49,10.3,5a1.19,1.19,0,0,1-.94,1.86c-3.57.11-12.91,1-19.63,6.54a1.19,1.19,0,0,0,.22,2c2.25,1.08,6,3.46,5.76,7.48a1.2,1.2,0,0,1-.74,1l-13.3,5.5a1.2,1.2,0,0,0-.58,1.69l5.27,9.22a1.22,1.22,0,0,1,0,1.21c-3,5-23.3,41.72-4.15,94.38a1.19,1.19,0,0,1-1.77,1.41c-7.38-4.89-25.84-15.35-34.3-4a1.19,1.19,0,0,0-.2.95,81.81,81.81,0,0,1,2,15.51,1.18,1.18,0,0,1-1.23,1.22c-3.18-.12-11.62-.23-14.88,1.87a1.19,1.19,0,0,0,.12,2c2.28,1.21,7,3.75,9.33,5.36a1.18,1.18,0,0,1-.09,2,27.25,27.25,0,0,0-8.64,8.34,1.19,1.19,0,0,0,1.39,1.79c5.15-1.82,14.54-4.89,14.54-3,0,0-4.21,18.71,6.81,29.63a1.19,1.19,0,0,0,2-.85c-.08-6.27.22-21.57,4.78-24.06,0,0,4.58-2.67,8.2-.2a1.19,1.19,0,0,0,1.88-1c-.1-3.19-1-8.28-5.74-10.56a1.2,1.2,0,0,1-.67-1.07v-7.49a1.19,1.19,0,0,1,1.85-1l8.66,5.77a1.16,1.16,0,0,0,1.07.12l8.3-3.05a1.17,1.17,0,0,1,1.51.66c4.12,10,39.41,86.37,145.36,54,76.49-23.38,95.11-117,141.44-179.45a198.23,198.23,0,0,0-8.59-19.67A156.94,156.94,0,0,0,494,277.73C481.54,301.49,462.91,336,447.49,359.9Z"/><path class="cls-2" d="M622.33,294.94C606.16,172.13,498.51,71.53,373.44,66c-94-4.18-172.26,30-230,105.07C97.64,230.59,79.58,298.57,94.75,372.79c10.67,52.21,35.77,99.1,66.34,142.08,62.16,87.39,126.35,173.34,190.15,260.51C380.93,736,409.5,697.8,438.33,659.83,489.1,593,541.27,527.06,582.52,453.57,610.15,404.36,630,353.43,622.33,294.94ZM356.74,519.68c-104,0-188.32-84.31-188.32-188.32S252.74,143,356.74,143s188.33,84.32,188.33,188.33S460.75,519.68,356.74,519.68Z"/></svg>